HIERARCHY
ROOT Hips
{
 OFFSET 0.000000 0.000000 0.000000
 CHANNELS 6 Xposition Yposition Zposition Yrotation Xrotation Zrotation
 JOINT Chest
 {
  OFFSET 0.000000 9.910571 -0.011835
  CHANNELS 3 Yrotation Xrotation Zrotation
  JOINT Chest2
  {
   OFFSET 0.000000 10.789473 0.021497
   CHANNELS 3 Yrotation Xrotation Zrotation
   JOINT Chest3
   {
    OFFSET 0.000000 9.748205 0.000000
    CHANNELS 3 Yrotation Xrotation Zrotation
    JOINT Chest4
    {
     OFFSET 0.000000 9.748205 0.000000
     CHANNELS 3 Yrotation Xrotation Zrotation
     JOINT Neck
     {
      OFFSET 0.000000 13.998479 0.000000
      CHANNELS 3 Yrotation Xrotation Zrotation
      JOINT Head
      {
       OFFSET 0.000000 9.082285 0.051121
       CHANNELS 3 Yrotation Xrotation Zrotation
       End Site
       {
        OFFSET 0.000000 17.246134 0.026702
       }
      }
     }
     JOINT RightCollar
     {
      OFFSET -3.284495 7.824262 0.000000
      CHANNELS 3 Yrotation Xrotation Zrotation
      JOINT RightShoulder
      {
       OFFSET -15.534540 0.000000 0.000000
       CHANNELS 3 Yrotation Xrotation Zrotation
       JOINT RightElbow
       {
        OFFSET 0.000000 -28.251216 0.000000
        CHANNELS 3 Yrotation Xrotation Zrotation
        JOINT RightWrist
        {
         OFFSET 0.000000 -23.418114 0.012537
         CHANNELS 3 Yrotation Xrotation Zrotation
         End Site
         {
          OFFSET 0.000000 -17.723959 0.000000
         }
        }
       }
      }
     }
     JOINT LeftCollar
     {
      OFFSET 3.284495 7.824262 0.000000
      CHANNELS 3 Yrotation Xrotation Zrotation
      JOINT LeftShoulder
      {
       OFFSET 15.534540 0.000000 0.000000
       CHANNELS 3 Yrotation Xrotation Zrotation
       JOINT LeftElbow
       {
        OFFSET 0.000000 -28.251216 0.000000
        CHANNELS 3 Yrotation Xrotation Zrotation
        JOINT LeftWrist
        {
         OFFSET 0.000000 -23.418114 0.012537
         CHANNELS 3 Yrotation Xrotation Zrotation
         End Site
         {
          OFFSET 0.000000 -17.723959 0.000000
         }
        }
       }
      }
     }
    }
   }
  }
 }
 JOINT RightHip
 {
  OFFSET -8.142657 0.057990 0.005917
  CHANNELS 3 Yrotation Xrotation Zrotation
  JOINT RightKnee
  {
   OFFSET 0.000000 -49.716894 0.008478
   CHANNELS 3 Yrotation Xrotation Zrotation
   JOINT RightAnkle
   {
    OFFSET 0.000000 -43.994153 0.004166
    CHANNELS 3 Yrotation Xrotation Zrotation
    JOINT RightToe
    {
     OFFSET 0.000000 -7.619154 17.822051
     CHANNELS 3 Yrotation Xrotation Zrotation
     End Site
     {
      OFFSET 0.000000 -1.595627 7.159905
     }
    }
   }
  }
 }
 JOINT LeftHip
 {
  OFFSET 8.142657 0.057990 0.005917
  CHANNELS 3 Yrotation Xrotation Zrotation
  JOINT LeftKnee
  {
   OFFSET 0.000000 -49.716894 0.008478
   CHANNELS 3 Yrotation Xrotation Zrotation
   JOINT LeftAnkle
   {
    OFFSET 0.000000 -43.994153 0.004166
    CHANNELS 3 Yrotation Xrotation Zrotation
    JOINT LeftToe
    {
     OFFSET 0.000000 -7.619154 17.822051
     CHANNELS 3 Yrotation Xrotation Zrotation
     End Site
     {
      OFFSET 0.000000 -1.595627 7.159905
     }
    }
   }
  }
 }
}
MOTION
Frames: 15
Frame Time: 0.008333
177.172135 103.170649 301.283476 -57.588597 -13.749524 1.270491 -1.136992 6.562758 0.735990 -0.509931 2.892099 0.336263 -0.509931 2.892099 0.336263 -0.383959 2.168797 0.254559 -1.426825 17.574485 -0.880709 -2.332916 -3.550150 -1.139041 -2.231993 3.524886 9.274588 4.471225 -12.660467 -15.621338 10.143625 -11.161996 -3.321519 11.634120 -9.467131 -19.217646 5.659501 2.727591 -9.424522 7.026408 -9.319370 12.185918 5.833811 -15.431515 -14.280354 -43.446786 6.130161 22.904184 -6.811696 19.460900 -5.055342 -5.226222 -2.643203 1.346487 -0.217001 -1.873722 1.217087 -0.008271 0.100746 -0.067974 3.811505 14.096731 3.753841 2.986742 7.858824 -1.974485 1.946594 -3.120347 -2.691666 -0.027048 0.178022 -1.213468
176.927350 103.132379 301.403879 -57.543307 -13.637080 1.066213 -1.183973 6.437649 0.842387 -0.526848 2.852837 0.354377 -0.526848 2.852837 0.354377 -0.396710 2.139325 0.268189 -1.453334 17.595472 -0.900628 -2.375016 -3.511316 -1.167020 -2.331545 3.531965 9.330287 4.483035 -12.678709 -15.586756 10.287556 -10.797706 -3.487950 11.686621 -9.461846 -19.254124 5.473687 2.738916 -9.449519 6.737515 -9.428643 12.178935 6.481851 -15.394503 -14.191482 -43.457076 6.019205 22.795877 -6.864981 19.691725 -4.852902 -5.174743 -2.988006 1.353073 -0.211823 -1.834931 1.232164 -0.012307 0.075422 -0.059293 3.879228 14.118768 3.843115 3.094770 7.733070 -1.901977 2.652885 -2.838095 -1.993691 -0.089504 -0.102722 -1.547839
176.698842 103.100917 301.504058 -57.495427 -13.477856 0.788500 -1.230721 6.269542 1.037099 -0.536150 2.816556 0.369237 -0.536150 2.816556 0.369237 -0.403735 2.112096 0.279345 -1.492373 17.618228 -0.916370 -2.441655 -3.469105 -1.183062 -2.422778 3.545279 9.397658 4.454208 -12.706183 -15.532267 10.400988 -10.383981 -3.660948 11.738226 -9.474116 -19.333364 5.282994 2.754317 -9.458209 6.398948 -9.560579 12.169358 6.993760 -15.390530 -14.102167 -43.402955 5.923727 22.677575 -6.888383 19.798096 -4.533125 -5.093280 -3.195403 1.296462 -0.236364 -1.797732 1.248579 -0.013361 -0.003844 -0.036599 4.029762 14.043586 3.995540 3.360129 7.824235 -1.809585 2.739309 -2.881033 -1.616974 -0.143771 -0.322813 -1.510898
176.490451 103.085466 301.613713 -57.523027 -13.376976 0.644106 -1.231225 6.145434 1.124651 -0.534006 2.784751 0.378835 -0.534006 2.784751 0.378835 -0.402154 2.088235 0.286505 -1.549786 17.640674 -0.936184 -2.540797 -3.427443 -1.200388 -2.509401 3.576658 9.462756 4.393446 -12.727898 -15.458182 10.482347 -9.957234 -3.840730 11.768602 -9.515003 -19.447191 5.088509 2.763568 -9.478386 6.036453 -9.667129 12.163933 7.489334 -15.386846 -13.956167 -43.447798 5.820261 22.494617 -6.829985 19.880076 -4.311820 -5.027731 -3.278130 1.186539 -0.302390 -1.817516 1.280411 -0.006462 -0.079467 -0.004019 4.346294 14.091620 3.963311 3.647625 7.855067 -1.633145 2.571782 -3.370159 -1.152833 -0.156020 -0.201413 -1.522491
176.300520 103.083729 301.728851 -57.630406 -13.335882 0.615341 -1.188234 6.069949 1.119062 -0.519099 2.759293 0.384653 -0.519099 2.759293 0.384653 -0.390987 2.069146 0.290779 -1.614005 17.661562 -0.953657 -2.653281 -3.388605 -1.211093 -2.580688 3.630938 9.527624 4.338283 -12.785348 -15.344511 10.499971 -9.437913 -4.067473 11.765721 -9.567967 -19.544923 4.903240 2.767444 -9.479278 5.630028 -9.786678 12.157332 7.818424 -15.407441 -13.796713 -43.424603 5.722308 22.305540 -6.680765 19.954419 -4.171863 -4.981159 -3.263732 1.032780 -0.401319 -1.896775 1.318440 0.004564 -0.133337 0.039048 4.853866 14.338649 3.813952 3.746488 7.566091 -1.369890 2.439076 -3.933874 -0.706844 -0.146926 0.095235 -1.549221
176.128313 103.092313 301.843104 -57.790253 -13.351419 0.652462 -1.113547 6.030207 1.058657 -0.495958 2.738140 0.386883 -0.495958 2.738140 0.386883 -0.373632 2.053294 0.292331 -1.690190 17.680911 -0.980856 -2.784519 -3.352686 -1.235689 -2.649749 3.720322 9.583829 4.286604 -12.872631 -15.189265 10.515229 -8.848456 -4.298218 11.699047 -9.653233 -19.722832 4.733987 2.767719 -9.490775 5.195043 -9.884747 12.163091 8.122697 -15.420880 -13.591101 -43.488924 5.633858 22.061497 -6.464906 20.028990 -4.069705 -4.927639 -3.167252 0.842373 -0.553804 -2.023058 1.359979 0.018548 -0.168977 0.086368 5.527175 14.789602 3.634938 3.439636 6.919579 -1.098209 2.529055 -4.339985 -0.581785 -0.123546 0.397519 -1.335540
175.978028 103.103700 301.944419 -57.988710 -13.379425 0.710232 -1.013270 6.000701 0.985551 -0.464948 2.715873 0.385177 -0.464948 2.715873 0.385177 -0.350359 2.036615 0.290896 -1.780331 17.701489 -1.010153 -2.940766 -3.314422 -1.259477 -2.689095 3.825333 9.633770 4.243901 -12.949474 -14.990661 10.443237 -8.206683 -4.544603 11.653873 -9.715300 -19.906296 4.577362 2.778269 -9.491079 4.722186 -10.006985 12.183073 8.257607 -15.447303 -13.366845 -43.478982 5.545411 21.810459 -6.190146 20.073248 -3.962644 -4.866709 -3.019649 0.630945 -0.735786 -2.157442 1.399924 0.030170 -0.201838 0.132087 6.277891 15.348299 3.537841 2.889756 6.138284 -0.994057 2.714339 -4.585547 -0.431107 -0.085566 0.579290 -1.121321
175.848386 103.112432 302.025203 -58.204079 -13.398589 0.723302 -0.903285 5.962115 0.944761 -0.426141 2.689943 0.384880 -0.426141 2.689943 0.384880 -0.321243 2.017191 0.290484 -1.883342 17.718404 -1.049560 -3.117314 -3.283022 -1.297531 -2.717422 3.924911 9.663070 4.206513 -12.990370 -14.725886 10.298215 -7.542694 -4.835766 11.625987 -9.782093 -20.095698 4.450326 2.788579 -9.501318 4.219960 -10.121510 12.221560 8.378579 -15.445410 -13.106473 -43.575550 5.465167 21.511382 -5.917372 20.075873 -3.811900 -4.751829 -2.834242 0.420051 -0.929979 -2.309691 1.423579 0.032131 -0.215696 0.176216 7.033333 15.883046 3.713957 2.382283 5.498842 -1.228285 2.774137 -4.842933 -0.047139 -0.044312 0.662928 -1.032934
175.744156 103.113437 302.079470 -58.408878 -13.370687 0.681674 -0.802276 5.885929 0.943548 -0.383659 2.656674 0.386707 -0.383659 2.656674 0.386707 -0.289375 1.992265 0.291647 -1.990519 17.731589 -1.094936 -3.299523 -3.258604 -1.345153 -2.733931 4.013396 9.675598 4.181063 -12.978562 -14.405240 10.093183 -6.866443 -5.152377 11.630986 -9.794489 -20.255030 4.341482 2.814777 -9.522552 3.673779 -10.261212 12.289142 8.357922 -15.445046 -12.832913 -43.591866 5.409077 21.204553 -5.683131 19.995812 -3.617787 -4.595820 -2.613137 0.220888 -1.108753 -2.452396 1.426059 0.029507 -0.233897 0.217417 7.651096 16.285626 4.153266 2.077490 5.039172 -1.734342 2.728638 -5.081623 0.217127 0.003317 0.657464 -0.836105
175.657104 103.106835 302.116023 -58.619486 -13.344554 0.560447 -0.682876 5.814054 0.999553 -0.339097 2.617144 0.393350 -0.339097 2.617144 0.393350 -0.255964 1.962642 0.296415 -2.101420 17.741270 -1.146419 -3.486532 -3.240769 -1.402738 -2.755693 4.070285 9.670052 4.161818 -12.896440 -14.023016 9.853549 -6.173829 -5.489150 11.658870 -9.784947 -20.408988 4.255130 2.856703 -9.550137 3.092860 -10.409151 12.373058 8.344867 -15.392918 -12.523711 -43.690684 5.343381 20.866469 -5.495150 19.905365 -3.372848 -4.397518 -2.391754 0.045923 -1.244795 -2.578113 1.407206 0.020976 -0.251197 0.253505 8.163605 16.618120 4.830834 1.879132 4.632207 -2.307941 2.583414 -5.293410 0.066308 0.170075 0.667576 -0.420575
175.601505 103.093555 302.167449 -58.779859 -13.264941 0.481337 -0.616554 5.700741 0.993868 -0.296372 2.571062 0.403619 -0.296372 2.571062 0.403619 -0.223941 1.928102 0.303911 -2.215349 17.750984 -1.204920 -3.676742 -3.222988 -1.472261 -2.780208 4.110083 9.651770 4.182379 -12.768337 -13.611573 9.585113 -5.465856 -5.846356 11.712388 -9.706319 -20.497844 4.196842 2.913807 -9.590597 2.471404 -10.577317 12.475795 8.206742 -15.333759 -12.215054 -43.712351 5.302686 20.535317 -5.464711 19.758456 -3.248085 -4.154305 -2.191059 -0.081360 -1.340641 -2.743044 1.382654 0.008515 -0.210700 0.280018 8.564610 16.910721 5.386116 1.723462 4.059756 -2.724918 2.578206 -5.318949 -0.325564 0.218919 0.675680 0.017113
175.568433 103.076298 302.252721 -58.929841 -13.186679 0.429311 -0.543992 5.601040 0.940439 -0.258411 2.519545 0.415072 -0.258411 2.519545 0.415072 -0.195489 1.889485 0.312320 -2.334462 17.766204 -1.260835 -3.877353 -3.194896 -1.535404 -2.814285 4.107358 9.625943 4.205885 -12.577192 -13.186529 9.328658 -4.777747 -6.193691 11.774002 -9.590388 -20.565982 4.151433 2.980872 -9.624838 1.822965 -10.764588 12.596125 8.093321 -15.220477 -11.871302 -43.806025 5.244803 20.158970 -5.532392 19.620765 -3.224011 -3.895618 -2.017649 -0.167440 -1.382240 -2.883548 1.365910 -0.004215 -0.177082 0.298408 8.858223 17.249935 5.762192 1.667111 3.378207 -3.007591 2.641268 -5.217820 -0.685274 0.162183 0.659421 0.325221
175.551366 103.056919 302.368835 -59.059562 -13.086816 0.394103 -0.478649 5.507015 0.873068 -0.229166 2.462092 0.424288 -0.229166 2.462092 0.424288 -0.173559 1.846411 0.319091 -2.447350 17.785368 -1.317359 -4.066250 -3.159550 -1.601897 -2.848911 4.079811 9.601511 4.236182 -12.336117 -12.756495 9.084125 -4.117313 -6.538804 11.894462 -9.403602 -20.542509 4.143301 3.039336 -9.652907 1.142796 -10.957189 12.718270 7.863910 -15.097463 -11.529654 -43.832238 5.222528 19.795353 -5.670667 19.472543 -3.273796 -3.646089 -1.868808 -0.211285 -1.379911 -3.018399 1.350104 -0.013788 -0.136254 0.311453 9.043192 17.616360 5.978046 1.732495 2.633743 -3.207467 2.679654 -5.032304 -0.933584 0.063874 0.619598 0.496826
175.544597 103.038400 302.508443 -59.134550 -12.971426 0.346633 -0.436899 5.401204 0.811048 -0.207052 2.405291 0.429316 -0.207052 2.405291 0.429316 -0.156957 1.803824 0.322755 -2.566503 17.806512 -1.375802 -4.266024 -3.120522 -1.669905 -2.892823 4.038045 9.584956 4.260357 -12.079174 -12.364620 8.883031 -3.501763 -6.847781 12.035108 -9.189900 -20.472873 4.149804 3.071020 -9.670691 0.446782 -11.114294 12.843354 7.677002 -14.945910 -11.161934 -43.948049 5.186351 19.398419 -5.876410 19.330196 -3.351818 -3.422713 -1.757457 -0.231905 -1.341985 -3.126472 1.342347 -0.020682 -0.104653 0.318743 9.094648 17.971469 6.069401 1.938026 1.890402 -3.348117 2.643918 -4.784788 -1.118787 -0.032739 0.553938 0.607337
175.536934 103.021957 302.657290 -59.154831 -12.840256 0.290284 -0.422582 5.294640 0.770524 -0.198391 2.350873 0.426703 -0.198391 2.350873 0.426703 -0.150415 1.763017 0.320746 -2.677989 17.822767 -1.434758 -4.451510 -3.090668 -1.741369 -2.945182 3.998828 9.590672 4.287604 -11.823222 -12.020335 8.763438 -2.907956 -7.103046 12.210750 -8.935547 -20.319665 4.161446 3.072059 -9.656984 -0.214499 -11.253414 12.934649 7.381441 -14.813604 -10.798696 -44.000148 5.197902 19.002006 -6.129914 19.197086 -3.434319 -3.214826 -1.687144 -0.248105 -1.300078 -3.204901 1.337347 -0.020892 -0.085842 0.324580 9.049218 18.311242 6.061329 2.161223 1.147082 -3.417829 2.586130 -4.495264 -1.303729 -0.091629 0.473019 0.697654
